<svg width="176" height="26" viewBox="0 0 176 26" fill="none" xmlns="http://www.w3.org/2000/svg">
<path d="M19.4998 4.5671C19.6178 3.95026 19.8171 3.4551 20.0497 3.07283C20.4535 2.40868 20.9868 1.94766 21.8499 2.00478C22.2286 2.03013 22.6032 2.16499 22.8107 2.4516C21.3332 2.77946 19.9158 3.89686 19.4998 5.74163C19.0842 3.89686 17.6664 2.77946 16.1893 2.4516C16.3968 2.16499 16.7714 2.03013 17.1501 2.00478C18.0132 1.94766 18.5465 2.40868 18.9503 3.07283C19.1828 3.4551 19.3822 3.95026 19.4998 4.5671ZM19.4998 13.7152C19.4998 9.7732 24.0792 10.387 27.0626 9.35849C28.8902 8.72847 29.1489 7.67157 28.9543 7.10644C28.6885 6.33379 27.4114 6.33785 27.1582 7.07332C27.0714 7.3258 27.0541 7.8 27.2999 8.18667C26.2174 7.6834 25.9496 6.7502 26.2289 5.96267C26.8463 4.22302 29.3876 4.15712 30.4117 5.53376C30.9463 6.25132 31.0074 7.26868 30.4944 8.15016C29.5547 9.76442 26.6832 10.3836 24.6101 10.8622C22.9124 11.2546 21.3393 11.7282 20.6969 13.2079C20.4725 13.7243 20.3955 14.5463 20.564 15.2615C21.5278 12.8973 23.2449 11.4084 26.9344 11.8529C28.1596 12.0002 29.9961 12.5816 31.0169 11.8502C31.6803 11.3746 31.5369 10.5756 30.866 10.4772C30.4788 10.4205 29.9896 10.7801 30.0513 11.3229C29.6194 10.9214 29.6205 10.3829 29.8913 9.96755C30.3758 9.22464 31.3979 9.16144 32.139 9.57311C32.8431 9.96451 33.1696 10.7341 32.9733 11.4686C32.5329 13.1156 30.2581 13.3056 28.6109 12.9493C24.6837 12.1003 22.0726 13.6922 22.1577 17.4808C24.0037 15.2521 26.5368 13.5665 30.8226 13.8359C34.0551 14.039 35.9004 14.4054 39 13.7152C37.2056 15.4285 35.0515 15.9683 32.7974 15.9521C31.3996 15.9416 29.8103 15.6952 27.8471 15.661C25.0536 15.6127 22.8463 17.2114 22.4038 20.0732C21.7116 19.699 21.4417 18.853 21.3495 18.1497C21.2258 17.208 21.1413 16.4337 20.5477 15.9098C19.9765 16.3418 19.7961 17.0363 19.6937 17.881C19.828 17.8854 19.9009 18.0351 19.9009 18.2156C19.9009 18.6601 19.885 18.9639 19.8216 19.4033C19.7758 19.7224 19.908 20.0137 20.1955 20.2263C20.3925 20.372 20.5213 20.5734 20.5582 20.8063L21.064 24L19.7971 23.4548L19.4998 21.4995L19.2029 23.4548L17.936 24L18.4418 20.8063C18.4787 20.5734 18.6075 20.372 18.8045 20.2263C19.092 20.0137 19.2242 19.7224 19.1781 19.4033C19.115 18.9639 19.0991 18.6601 19.0991 18.2156C19.0991 18.0351 19.172 17.8854 19.3059 17.881C19.2035 17.0363 19.0235 16.3418 18.4519 15.9098C17.8587 16.4337 17.7742 17.208 17.6505 18.1497C17.5583 18.853 17.2884 19.699 16.5958 20.0732C16.1537 17.2114 13.9464 15.6127 11.1529 15.661C9.18969 15.6952 7.60039 15.9416 6.20263 15.9521C3.94851 15.9683 1.79441 15.4285 0 13.7152C3.09962 14.4054 4.94488 14.039 8.17739 13.8359C12.4629 13.5665 14.9963 15.2521 16.8423 17.4808C16.9274 13.6922 14.3163 12.1003 10.3891 12.9493C8.74185 13.3056 6.46672 13.1156 6.02668 11.4686C5.83039 10.7341 6.15686 9.96451 6.86099 9.57311C7.60208 9.16144 8.62421 9.22464 9.10867 9.96755C9.3792 10.3829 9.38056 10.9214 8.94865 11.3229C9.01035 10.7801 8.52115 10.4205 8.134 10.4772C7.46309 10.5756 7.31968 11.3746 7.98314 11.8502C9.00391 12.5816 10.8404 12.0002 12.0656 11.8529C15.7551 11.4084 17.4718 12.8973 18.436 15.2615C18.6045 14.5463 18.5272 13.7243 18.3031 13.2079C17.6607 11.7282 16.0876 11.2546 14.3898 10.8622C12.3168 10.3836 9.44531 9.76442 8.50556 8.15016C7.99263 7.26868 8.05365 6.25132 8.58794 5.53376C9.61244 4.15712 12.1537 4.22302 12.7711 5.96267C13.0504 6.7502 12.7826 7.6834 11.7001 8.18667C11.9459 7.8 11.9283 7.3258 11.8415 7.07332C11.5886 6.33785 10.3115 6.33379 10.0454 7.10644C9.85111 7.67157 10.1098 8.72847 11.9374 9.35849C14.9204 10.387 19.4998 9.7732 19.4998 13.7152ZM20.6766 9.7242C20.1504 10.2805 19.5839 10.94 19.4998 12.4346C19.4158 10.94 18.8496 10.2805 18.3234 9.7242C17.241 8.58009 15.9639 7.71381 15.3289 6.56193C14.617 5.2708 14.896 4.26122 15.5286 3.77992C16.1826 3.28171 17.3064 3.3439 18.0116 4.24837C18.6014 5.00514 18.6523 6.15601 18.3529 6.92798C18.0885 5.5706 17.2416 5.16433 16.9138 5.3411C16.5006 5.56418 16.6392 6.14925 17.0413 6.82523C17.5644 7.70435 18.3109 8.33504 18.8889 9.17023C19.2252 9.65626 19.4998 10.1903 19.4998 10.6506C19.4998 10.1903 19.7748 9.65626 20.1111 9.17023C20.6891 8.33504 21.4356 7.70435 21.9587 6.82523C22.3608 6.14925 22.4994 5.56418 22.0862 5.3411C21.7584 5.16433 20.9115 5.5706 20.6471 6.92798C20.3477 6.15601 20.3986 5.00514 20.9884 4.24837C21.6933 3.3439 22.8174 3.28171 23.4714 3.77992C24.104 4.26122 24.383 5.2708 23.6711 6.56193C23.0361 7.71381 21.759 8.58009 20.6766 9.7242Z" fill="white"/>
<path d="M148.433 13.7583C149.227 13.7583 149.88 13.117 149.88 12.3143C149.88 11.5115 149.237 10.8719 148.433 10.8719C147.629 10.8719 146.986 11.5131 146.986 12.3143C146.986 13.1154 147.629 13.7583 148.433 13.7583Z" fill="white"/>
<path d="M150.3 24.3411V24.3298C149.538 23.6466 148.976 22.7227 148.976 21.5048C148.976 20.2869 149.538 19.3275 150.342 18.536C150.834 18.0434 151.554 17.6267 152.551 17.2859C149.209 17.3505 147.606 19.1999 147.188 19.8088C146.77 20.4178 146.426 21.3061 146.426 22.0976C146.426 23.2734 146.845 24.1812 147.725 24.8983C148.605 25.6139 149.697 25.9935 151.029 25.9999C153.248 26.0096 154.482 25.1665 154.557 25.1342C154.064 25.2521 153.57 25.3264 153.001 25.3264C151.94 25.3264 151.029 24.984 150.298 24.3427L150.3 24.3411Z" fill="white"/>
<path d="M159.535 22.9198V13.747C159.535 12.0042 158.999 10.7977 157.905 10.0369C156.767 9.24545 155.246 8.82873 153.379 8.82873C152.543 8.82873 151.781 8.90303 151.063 9.02094C151.363 8.97894 151.706 8.97894 152.05 8.97894C153.497 8.97894 154.709 9.35206 155.589 10.1128C156.502 10.9043 156.962 12.2304 156.962 14.0895L157.004 23.2186C157.004 23.6353 157.08 24.0521 157.273 24.4688C157.348 24.619 157.433 24.7563 157.54 24.8855C157.819 25.2215 158.151 25.4525 158.527 25.6011C159.809 26.1825 161.723 25.5591 161.723 25.5591C161.096 25.446 159.535 25.278 159.535 22.9182V22.9198Z" fill="white"/>
<path d="M56.6412 16.4088L58.2634 17.9691L59.8467 16.4088L58.2634 14.8486L56.6412 16.4088Z" fill="white"/>
<path d="M51.4861 23.5821C51.5299 22.9408 51.7552 22.0638 52.1295 20.9315L56.9832 6.72251L51.6903 21.1447C51.2722 22.3206 50.8541 23.2622 50.5106 23.9148C50.1346 24.598 49.7051 25.123 49.2562 25.3572C49.031 25.4735 48.8381 25.6237 48.5691 25.6996H53.0516C52.6773 25.5817 52.4083 25.4331 52.1717 25.2829C51.8281 25.0584 51.4537 24.5237 51.4845 23.5837L51.4861 23.5821Z" fill="white"/>
<path d="M83.0632 23.4335L83.0746 23.4545C82.7002 22.9199 82.3567 22.2786 82.1201 21.5938L82.2708 24.8113C82.7634 25.1117 83.483 25.4218 84.4051 25.6027C85.3175 25.7949 86.3465 25.9774 87.4404 25.9774C86.6788 25.9338 85.9592 25.7109 85.23 25.3669C84.35 24.9502 83.6742 24.2669 83.0632 23.4319V23.4335Z" fill="white"/>
<path d="M69.1959 24.1716C68.8945 23.637 68.5525 22.9214 68.209 21.9684L60.4853 0.599242H59.2325L58.3202 2.98329L63.0393 16.3572V16.3992L64.9062 21.6696C65.2481 22.621 65.3989 23.3381 65.3665 23.8712C65.3227 24.514 65.0991 25.0486 64.6048 25.3475C64.4119 25.4638 64.1867 25.614 63.9193 25.6899H70.9866C70.7614 25.614 70.5685 25.4977 70.3757 25.4218C69.8814 25.2295 69.4957 24.7369 69.1959 24.1716Z" fill="white"/>
<path d="M57.0739 6.45603L56.9832 6.72251L57.0853 6.44634L57.0739 6.45603Z" fill="white"/>
<path d="M93.1773 12.6147L93.1011 9.81398C92.7268 9.58946 92.1904 9.39725 91.4708 9.20504C90.7092 9.01283 89.7546 8.90461 88.7353 8.90461C89.8389 8.98053 90.8258 9.39725 91.7058 10.1984C92.3492 10.8089 93.1757 12.6147 93.1757 12.6147H93.1773Z" fill="white"/>
<path d="M161.725 25.5914L161.746 25.5801L161.722 25.5898C161.722 25.5898 161.722 25.5898 161.723 25.5898L161.725 25.5914Z" fill="white"/>
<path d="M99.4084 13.7583C100.203 13.7583 100.856 13.117 100.856 12.3143C100.856 11.5115 100.212 10.8719 99.4084 10.8719C98.6046 10.8719 97.9613 11.5131 97.9613 12.3143C97.9613 13.1154 98.6046 13.7583 99.4084 13.7583Z" fill="white"/>
<path d="M101.275 24.3411V24.3298C100.514 23.6466 99.9514 22.7227 99.9514 21.5048C99.9514 20.2869 100.514 19.3275 101.318 18.536C101.81 18.0434 102.53 17.6267 103.526 17.2859C100.185 17.3505 98.582 19.1999 98.1638 19.8088C97.7457 20.4178 97.4022 21.3061 97.4022 22.0976C97.4022 23.2734 97.8203 24.1812 98.7003 24.8983C99.5802 25.6139 100.673 25.9935 102.005 25.9999C104.223 26.0096 105.458 25.1665 105.533 25.1342C105.04 25.2521 104.546 25.3264 103.977 25.3264C102.915 25.3264 102.005 24.984 101.274 24.3427L101.275 24.3411Z" fill="white"/>
<path d="M110.509 22.9198V13.747C110.509 12.0042 109.973 10.7977 108.879 10.0369C107.741 9.24545 106.22 8.82873 104.353 8.82873C103.517 8.82873 102.755 8.90303 102.037 9.02094C102.337 8.97894 102.68 8.97894 103.024 8.97894C104.471 8.97894 105.683 9.35206 106.563 10.1128C107.476 10.9043 107.936 12.2304 107.936 14.0895L107.978 23.2186C107.978 23.6353 108.054 24.0521 108.247 24.4688C108.322 24.619 108.408 24.7563 108.515 24.8855C108.793 25.2215 109.125 25.4525 109.501 25.6011C110.783 26.1825 112.697 25.5591 112.697 25.5591C112.07 25.446 110.509 25.278 110.509 22.9182V22.9198Z" fill="white"/>
<path d="M89.4548 16.2909L88.0822 15.8742C86.9445 15.5318 86.0338 15.0407 85.379 14.5061C84.6919 13.9392 84.2738 13.18 84.2738 12.1964C84.2738 11.2127 84.6498 10.4116 85.4115 9.77032C86.0224 9.2793 86.8165 8.97887 87.8456 8.89326C86.8586 8.93526 85.9479 9.11777 85.1424 9.42789C84.2317 9.77032 83.5121 10.305 82.9757 10.9769C82.4393 11.6617 82.214 12.4532 82.214 13.4368C82.214 14.6127 82.5884 15.5528 83.3938 16.2812C84.2301 16.9968 85.3677 17.6816 86.8586 18.1726L88.2313 18.6314C89.4856 19.0481 90.398 19.4971 91.009 20.0737C91.6961 20.6827 91.9635 21.5161 91.9635 22.4998C91.9635 23.4834 91.5875 24.3605 90.8258 25.0437C90.257 25.5784 89.4953 25.8772 88.6154 25.9515C89.4208 25.8772 90.1387 25.727 90.8566 25.4168C91.7674 25.0421 92.5615 24.5075 93.1741 23.7919C93.7429 23.1071 94.0103 22.3173 94.0103 21.3336C94.0103 20.0398 93.6343 19.0255 92.8726 18.2227C92.0785 17.3893 90.9312 16.748 89.4516 16.2877L89.4548 16.2909Z" fill="white"/>
<path d="M119.669 23.7855L119.627 9.01281L115.219 9.54745C115.219 9.54745 116.998 9.63628 116.998 11.5148V23.6805C116.998 25.3959 116 25.5719 115.626 25.6898H120.871C120.528 25.5832 119.669 25.4459 119.669 23.7871V23.7855Z" fill="white"/>
<path d="M130.984 23.8065V13.8019C130.984 11.644 130.062 10.5408 129.568 10.0805C128.699 9.24702 127.368 8.8723 125.771 8.8723C123.494 8.8723 122.124 9.88826 121.973 10.0062C122.573 9.78166 125.151 8.89653 127.176 10.9139C127.96 11.6957 128.281 12.9992 128.281 14.5917V23.7952C128.281 25.4217 127.411 25.5703 127.069 25.6882H132.206C131.862 25.5816 130.982 25.4314 130.982 23.8065H130.984Z" fill="white"/>
<path d="M141.792 23.8065V13.8019C141.792 11.644 140.869 10.5408 140.375 10.0805C139.507 9.24702 138.176 8.8723 136.578 8.8723C134.301 8.8723 132.932 9.88826 132.781 10.0062C133.381 9.78166 135.959 8.89653 137.983 10.9139C138.768 11.6957 139.088 12.9992 139.088 14.5917V23.7952C139.088 25.4217 138.218 25.5703 137.876 25.6882H143.014C142.67 25.5816 141.79 25.4314 141.79 23.8065H141.792Z" fill="white"/>
<path d="M77.6035 23.679V0L73.1517 0.491023C73.1517 0.491023 74.9311 0.659005 74.9311 2.50034L74.9409 23.6773C74.9409 25.3749 73.9555 25.5687 73.5796 25.6867H78.9745C78.5985 25.5687 77.6019 25.4234 77.6019 23.6773L77.6035 23.679Z" fill="white"/>
<path d="M175.297 9.34406C175.062 9.09209 174.641 8.94833 174.143 8.94833C173.5 8.94833 172.814 9.20515 172.127 9.81409C171.635 10.2631 171.366 10.5716 170.763 11.3889C172.079 10.8397 172.649 10.6233 174.148 10.8882C174.386 10.9302 174.66 10.9092 174.871 10.8591C175.631 10.6798 175.767 9.85123 175.296 9.34567L175.297 9.34406Z" fill="white"/>
<path d="M168.943 23.7855L168.901 9.01281L164.493 9.54745C164.493 9.54745 166.272 9.63628 166.272 11.5148V23.6805C166.272 25.3959 165.274 25.5719 164.9 25.6898H170.145C169.802 25.5832 168.943 25.4459 168.943 23.7871V23.7855Z" fill="white"/>
</svg>
